name analog
datacolumns 19
datarows 38
range 0.528 0.5465
endheader
time	ground_force_vx	ground_force_vy	ground_force_vz	ground_force_px	ground_force_py	ground_force_pz	l_ground_force_vx	l_ground_force_vy	l_ground_force_vz	l_ground_force_px	l_ground_force_py	l_ground_force_pz	ground_torque_x	ground_torque_y	ground_torque_z	l_ground_torque_x	l_ground_torque_y	l_ground_torque_z
0.528	-0.0	-0.0	-0.0	-8.22706127166748	71.105712890625	-785.3922729492188	-32.181331634521484	-42.83286285400391	-670.5606079101562	-0.0	-0.0	-0.0	-0.0	-0.0	-0.0	190949.859375	-43719.33984375	-13900.70703125
0.5285	-0.0	-0.0	-0.0	-9.396780014038086	65.18452453613281	-763.1834716796875	-22.286664962768555	-38.31144714355469	-658.92529296875	-0.0	-0.0	-0.0	-0.0	-0.0	-0.0	188007.140625	-43937.92578125	-11871.76953125
0.529	-0.0	-0.0	-0.0	-17.692176818847656	61.57048797607422	-745.3699340820312	-21.68509864807129	-35.05388641357422	-651.7883911132812	-0.0	-0.0	-0.0	-0.0	-0.0	-0.0	186420.984375	-44268.4453125	-12242.6767578125
0.5295	-0.0	-0.0	-0.0	-24.760448455810547	59.42128753662109	-726.65283203125	-24.434833526611328	-32.25688171386719	-647.32763671875	-0.0	-0.0	-0.0	-0.0	-0.0	-0.0	185515.078125	-45042.12890625	-13384.3515625
0.53	-0.0	-0.0	-0.0	-26.60542297363281	58.00544738769531	-707.7814331054688	-21.24205207824707	-31.157554626464844	-638.4439086914062	-0.0	-0.0	-0.0	-0.0	-0.0	-0.0	182961.8125	-45423.5546875	-12245.2490234375
0.5305	-0.0	-0.0	-0.0	-28.13055992126465	56.173099517822266	-683.5633544921875	-14.854588508605955	-31.313661575317383	-627.8163452148438	-0.0	-0.0	-0.0	-0.0	-0.0	-0.0	179405.0	-45615.7109375	-9871.353515625
0.531	-0.0	-0.0	-0.0	-31.706920623779297	53.41995620727539	-668.4994506835938	-10.55764865875244	-33.96400451660156	-616.60595703125	-0.0	-0.0	-0.0	-0.0	-0.0	-0.0	176543.90625	-45988.80078125	-7673.78271484375
0.5315	-0.0	-0.0	-0.0	-36.72362518310547	50.98258972167969	-653.2760009765625	-8.693656921386719	-36.05456161499024	-609.815185546875	-0.0	-0.0	-0.0	-0.0	-0.0	-0.0	174094.671875	-46585.46875	-6271.68212890625
0.532	-0.0	-0.0	-0.0	-40.84636688232422	48.28940582275391	-639.8856811523438	-8.13240909576416	-36.68410873413086	-602.4456176757812	-0.0	-0.0	-0.0	-0.0	-0.0	-0.0	172304.6875	-47137.98046875	-5420.41796875
0.5325	-0.0	-0.0	-0.0	-44.47761154174805	45.61556625366211	-631.6867065429688	-7.274284362792969	-36.22356414794922	-595.1898193359375	-0.0	-0.0	-0.0	-0.0	-0.0	-0.0	170000.90625	-47868.8671875	-4901.8037109375
0.533	-0.0	-0.0	-0.0	-44.92377853393555	43.3777961730957	-625.0147705078125	-6.475887298583984	-34.94672775268555	-586.4992065429688	-0.0	-0.0	-0.0	-0.0	-0.0	-0.0	167856.28125	-47897.7578125	-4439.05712890625
0.5335	-0.0	-0.0	-0.0	-42.4675407409668	41.11771774291992	-617.6738891601562	-5.332204341888428	-33.40731430053711	-577.1099853515625	-0.0	-0.0	-0.0	-0.0	-0.0	-0.0	165138.265625	-48127.81640625	-4171.634765625
0.534	-0.0	-0.0	-0.0	-39.1232795715332	40.87288284301758	-614.3303833007812	-4.061658382415772	-31.032371520996094	-568.6181030273438	-0.0	-0.0	-0.0	-0.0	-0.0	-0.0	162572.640625	-47754.42578125	-4054.62939453125
0.5345	-0.0	-0.0	-0.0	-32.77647018432617	40.96209716796875	-612.9326782226562	-2.879970073699951	-29.111557006835938	-559.9771118164062	-0.0	-0.0	-0.0	-0.0	-0.0	-0.0	160201.625	-48094.30859375	-3961.111572265625
0.535	-0.0	-0.0	-0.0	-25.19415855407715	42.16811752319336	-611.0592651367188	-1.1473654508590698	-26.7556209564209	-551.2500610351562	-0.0	-0.0	-0.0	-0.0	-0.0	-0.0	157386.8125	-47857.33984375	-3877.786865234375
0.5355	-0.0	-0.0	-0.0	-16.79473114013672	43.50503158569336	-614.960693359375	0.6076241135597229	-25.08727264404297	-541.8462524414062	-0.0	-0.0	-0.0	-0.0	-0.0	-0.0	155640.453125	-47872.859375	-3691.8955078125
0.536	-0.0	-0.0	-0.0	-6.592470645904541	45.05769729614258	-615.7411499023438	2.264737606048584	-23.9860897064209	-533.9267578125	-0.0	-0.0	-0.0	-0.0	-0.0	-0.0	153413.484375	-48055.62890625	-3095.82421875
0.5365	-0.0	-0.0	-0.0	2.134872436523437	46.34264373779297	-617.00537109375	3.515850305557251	-23.85616874694824	-529.7734375	-0.0	-0.0	-0.0	-0.0	-0.0	-0.0	151679.9375	-48107.125	-2859.073486328125
0.537	-0.0	-0.0	-0.0	9.75561809539795	47.24840545654297	-611.685791015625	4.080696105957031	-24.460264205932617	-523.7274169921875	-0.0	-0.0	-0.0	-0.0	-0.0	-0.0	150208.171875	-48536.5390625	-2574.736328125
0.5375	-0.0	-0.0	-0.0	14.178711891174316	47.80168914794922	-606.4328002929688	4.2674078941345215	-25.81768035888672	-521.1736450195312	-0.0	-0.0	-0.0	-0.0	-0.0	-0.0	148843.0	-48661.40234375	-2126.9072265625
0.538	-0.0	-0.0	-0.0	15.879470825195312	46.94404983520508	-595.20556640625	4.365331172943115	-27.47725486755371	-517.2242431640625	-0.0	-0.0	-0.0	-0.0	-0.0	-0.0	147705.34375	-49713.52734375	-2041.41259765625
0.5385	-0.0	-0.0	-0.0	14.923003196716309	45.06597518920898	-585.1099243164062	5.218928337097168	-28.73783493041992	-514.96240234375	-0.0	-0.0	-0.0	-0.0	-0.0	-0.0	147186.203125	-50609.7421875	-1335.3887939453125
0.539	-0.0	-0.0	-0.0	12.372756958007812	43.600616455078125	-572.2142944335938	6.592157363891602	-29.359384536743164	-514.30029296875	-0.0	-0.0	-0.0	-0.0	-0.0	-0.0	147133.59375	-51611.16015625	-761.74658203125
0.5395	-0.0	-0.0	-0.0	10.410242080688477	42.01482391357422	-558.2328491210938	8.880226135253906	-30.242446899414062	-514.6495361328125	-0.0	-0.0	-0.0	-0.0	-0.0	-0.0	146900.359375	-53043.03125	70.19782257080078
0.54	-0.0	-0.0	-0.0	9.536434173583984	40.250614166259766	-547.818115234375	11.07973861694336	-31.01905059814453	-515.455322265625	-0.0	-0.0	-0.0	-0.0	-0.0	-0.0	146857.421875	-54329.15625	822.252197265625
0.5405	-0.0	-0.0	-0.0	8.520262718200684	39.12051773071289	-540.0479125976562	13.129196166992188	-31.478647232055664	-514.5145263671875	-0.0	-0.0	-0.0	-0.0	-0.0	-0.0	147139.484375	-55634.50390625	1612.3006591796875
0.541	-0.0	-0.0	-0.0	8.662444114685059	38.69161224365234	-530.3333740234375	14.043437004089355	-32.15810012817383	-514.2647094726562	-0.0	-0.0	-0.0	-0.0	-0.0	-0.0	146655.484375	-56823.40625	2238.7197265625
0.5415	-0.0	-0.0	-0.0	9.259921073913574	38.76274871826172	-523.9055786132812	14.992122650146484	-32.9798583984375	-512.79736328125	-0.0	-0.0	-0.0	-0.0	-0.0	-0.0	146264.609375	-57527.45703125	2583.056884765625
0.542	-0.0	-0.0	-0.0	9.126314163208008	38.83403778076172	-514.8655395507812	14.36217975616455	-33.17420196533203	-510.4243774414063	-0.0	-0.0	-0.0	-0.0	-0.0	-0.0	146134.09375	-58243.22265625	2810.876708984375
0.5425	-0.0	-0.0	-0.0	9.80423069000244	38.94107055664063	-511.36907958984375	13.226851463317873	-33.51844787597656	-508.2591247558594	-0.0	-0.0	-0.0	-0.0	-0.0	-0.0	145016.65625	-58981.140625	2667.665771484375
0.543	-0.0	-0.0	-0.0	10.18777084350586	38.43296432495117	-502.292236328125	11.718729972839355	-34.10103988647461	-505.7454528808594	-0.0	-0.0	-0.0	-0.0	-0.0	-0.0	144327.21875	-58978.1015625	2429.145751953125
0.5435	-0.0	-0.0	-0.0	9.901629447937012	38.1927490234375	-496.1828002929688	10.059788703918455	-34.162837982177734	-501.3119201660156	-0.0	-0.0	-0.0	-0.0	-0.0	-0.0	143291.25	-59390.8671875	1985.9677734375
0.544	-0.0	-0.0	-0.0	10.785651206970217	37.03318405151367	-491.4867858886719	9.190557479858398	-34.11857986450195	-498.86810302734375	-0.0	-0.0	-0.0	-0.0	-0.0	-0.0	142085.703125	-59672.29296875	1759.8741455078125
0.5445	-0.0	-0.0	-0.0	11.02558422088623	35.97358703613281	-486.9710998535156	7.966365814208984	-34.445457458496094	-493.7350158691406	-0.0	-0.0	-0.0	-0.0	-0.0	-0.0	141195.71875	-59973.60546875	1800.5360107421875
0.545	-0.0	-0.0	-0.0	11.812539100646973	34.76085662841797	-477.9216918945313	7.76165771484375	-34.21539688110352	-492.5494689941406	-0.0	-0.0	-0.0	-0.0	-0.0	-0.0	140580.828125	-60874.87109375	1838.930419921875
0.5455	-0.0	-0.0	-0.0	11.82809066772461	33.432613372802734	-474.5703125	8.817319869995117	-34.454158782958984	-490.55804443359375	-0.0	-0.0	-0.0	-0.0	-0.0	-0.0	139958.328125	-61922.11328125	2195.58056640625
0.546	-0.0	-0.0	-0.0	12.711284637451172	32.93489456176758	-470.8671569824219	9.492053985595703	-34.41947555541992	-488.148193359375	-0.0	-0.0	-0.0	-0.0	-0.0	-0.0	139902.65625	-63293.82421875	2542.7236328125
0.5465	-0.0	-0.0	-0.0	14.07798194885254	31.649925231933597	-465.2406005859375	10.333755493164062	-34.66731262207031	-487.552001953125	-0.0	-0.0	-0.0	-0.0	-0.0	-0.0	139804.78125	-64247.671875	3092.292236328125
